<?xml version="1.0" encoding="UTF-8"?>
<svg xmlns="http://www.w3.org/2000/svg" xmlns:xlink="http://www.w3.org/1999/xlink" width="120pt" height="146pt" viewBox="0 0 120 146" version="1.1">
<g id="surface1">
<path style=" stroke:none;fill-rule:nonzero;fill:rgb(0.392157%,25.882353%,38.823529%);fill-opacity:1;" d="M 16.097656 144.078125 L 14.703125 142.6875 L 14.703125 75.234375 L 12.683594 75.234375 C 11.578125 75.234375 9.917969 74.847656 9.003906 74.375 C 5.730469 72.6875 5.613281 71.933594 5.617188 52.464844 C 5.617188 42.589844 5.867188 33.847656 6.179688 32.730469 C 7.421875 28.277344 12.183594 24.054688 16.734375 23.375 C 19.011719 23.03125 19.246094 22.851562 19.246094 21.421875 C 19.246094 18.539062 21.472656 12.683594 23.652344 9.828125 C 30.597656 0.734375 41.859375 -1.984375 51.960938 2.992188 C 56.519531 5.238281 60.367188 9.003906 62.417969 13.226562 C 63.09375 14.621094 63.722656 15.761719 63.8125 15.761719 C 63.902344 15.761719 65.058594 15.382812 66.386719 14.914062 C 69.554688 13.800781 73.46875 13.835938 76.933594 15.015625 C 82.109375 16.773438 87.402344 23.585938 87.402344 28.492188 C 87.402344 29.425781 87.945312 29.832031 89.878906 30.347656 C 98.492188 32.644531 98.492188 45.324219 89.878906 47.621094 C 87.523438 48.25 87.402344 48.382812 87.402344 50.371094 L 87.402344 52.460938 L 94.363281 52.667969 C 100.328125 52.84375 101.722656 53.070312 104.144531 54.253906 C 107.746094 56.015625 111.21875 59.476562 112.992188 63.074219 L 114.382812 65.890625 L 114.382812 118.566406 L 112.992188 121.382812 C 111.21875 124.980469 107.746094 128.441406 104.144531 130.199219 C 101.722656 131.386719 100.328125 131.609375 94.363281 131.785156 L 87.402344 131.992188 L 87.402344 137.339844 C 87.402344 142.261719 87.292969 142.796875 86.007812 144.078125 L 84.617188 145.46875 L 17.488281 145.46875 Z M 16.097656 144.078125 "/>
<path style=" stroke:none;fill-rule:nonzero;fill:rgb(94.509804%,76.470588%,34.117647%);fill-opacity:1;" d="M 82.859375 136.40625 L 82.859375 131.875 L 19.246094 131.875 L 19.246094 140.9375 L 82.859375 140.9375 Z M 82.859375 136.40625 "/>
<path style=" stroke:none;fill-rule:nonzero;fill:rgb(94.509804%,76.470588%,34.117647%);fill-opacity:1;" d="M 69.34375 96.5 C 69.34375 74.785156 69.152344 65.246094 68.703125 64.253906 C 67.265625 61.109375 62.335938 61.109375 60.898438 64.253906 C 60.445312 65.246094 60.257812 74.785156 60.257812 96.5 L 60.257812 127.34375 L 69.34375 127.34375 Z M 69.34375 96.5 "/>
<path style=" stroke:none;fill-rule:nonzero;fill:rgb(94.509804%,76.470588%,34.117647%);fill-opacity:1;" d="M 82.859375 96.5 C 82.859375 74.785156 82.671875 65.246094 82.21875 64.253906 C 80.78125 61.109375 75.851562 61.109375 74.414062 64.253906 C 73.960938 65.246094 73.773438 74.785156 73.773438 96.5 L 73.773438 127.34375 L 82.859375 127.34375 Z M 82.859375 96.5 "/>
<path style=" stroke:none;fill-rule:nonzero;fill:rgb(83.529412%,89.803922%,100%);fill-opacity:1;" d="M 102.171875 125.980469 C 104.933594 124.546875 107.167969 122.363281 108.613281 119.699219 C 109.816406 117.472656 109.839844 116.972656 109.839844 92.226562 C 109.839844 67.484375 109.816406 66.980469 108.613281 64.757812 C 107.167969 62.089844 104.933594 59.90625 102.171875 58.472656 C 100.699219 57.707031 98.53125 57.382812 93.792969 57.214844 L 87.402344 56.988281 L 87.402344 61.542969 L 93.613281 61.734375 C 100.320312 61.941406 101.585938 62.433594 104.125 65.824219 C 105.265625 67.347656 105.296875 68.023438 105.296875 92.226562 C 105.296875 116.429688 105.265625 117.105469 104.125 118.628906 C 101.585938 122.023438 100.320312 122.515625 93.613281 122.722656 L 87.402344 122.914062 L 87.402344 127.464844 L 93.792969 127.238281 C 98.53125 127.070312 100.699219 126.746094 102.171875 125.980469 Z M 102.171875 125.980469 "/>
<path style=" stroke:none;fill-rule:nonzero;fill:rgb(100%,100%,100%);fill-opacity:1;" d="M 99.539062 116.789062 L 101.035156 115.296875 L 101.035156 69.160156 L 99.539062 67.667969 C 98.132812 66.265625 97.710938 66.171875 92.722656 66.171875 L 87.402344 66.171875 L 87.402344 118.28125 L 92.722656 118.28125 C 97.710938 118.28125 98.132812 118.1875 99.539062 116.789062 Z M 99.539062 116.789062 "/>
<path style=" stroke:none;fill-rule:nonzero;fill:rgb(100%,100%,100%);fill-opacity:1;" d="M 14.054688 69.953125 C 14.457031 69.46875 14.734375 64.792969 14.832031 56.84375 C 14.96875 45.792969 15.089844 44.421875 15.980469 43.863281 C 17.261719 43.058594 18.816406 43.972656 19.246094 45.78125 C 19.671875 47.589844 21.230469 48.503906 22.511719 47.703125 C 23.261719 47.234375 23.578125 46.054688 23.792969 42.890625 C 23.953125 40.589844 24.40625 38.132812 24.804688 37.433594 C 26.363281 34.695312 30.835938 33.664062 34.023438 35.308594 C 36.125 36.394531 36.957031 37.933594 37.480469 41.707031 C 39.054688 53.046875 53.757812 53.09375 55.554688 41.761719 C 56.210938 37.632812 57.449219 36.71875 62.414062 36.71875 C 67.894531 36.71875 68.855469 37.605469 69.226562 42.984375 C 69.441406 46.0625 69.761719 47.238281 70.507812 47.703125 C 72.253906 48.796875 73.453125 47.453125 73.789062 44.023438 C 73.957031 42.34375 74.410156 40.398438 74.800781 39.699219 C 76.332031 36.960938 80.816406 35.929688 84.015625 37.578125 C 85.6875 38.441406 87.402344 41.003906 87.402344 42.640625 C 87.402344 43.953125 88.976562 43.699219 90.554688 42.125 C 93.332031 39.355469 91.375 34.453125 87.492188 34.453125 C 84.734375 34.453125 83.324219 32.832031 82.8125 29.070312 C 82.25 24.921875 80.097656 21.726562 76.613281 19.863281 C 74.484375 18.726562 73.503906 18.542969 70.753906 18.78125 C 65.046875 19.265625 61.039062 23.003906 60.234375 28.589844 C 59.804688 31.585938 58.484375 32.859375 56.875 31.832031 C 54.851562 30.539062 56.09375 23.742188 59.105469 19.625 C 59.675781 18.84375 59.550781 18.140625 58.425781 15.742188 C 56.675781 12.011719 53.613281 8.867188 49.792969 6.871094 C 47.199219 5.511719 46.140625 5.300781 41.964844 5.300781 C 37.804688 5.300781 36.726562 5.515625 34.175781 6.851562 C 28.285156 9.929688 24.65625 15.179688 23.863281 21.765625 C 23.609375 23.851562 23.027344 25.828125 22.511719 26.34375 C 22.011719 26.839844 20.28125 27.457031 18.667969 27.710938 C 15.207031 28.253906 12.398438 30.195312 11.089844 32.949219 C 10.289062 34.632812 10.15625 37.339844 10.15625 52.125 C 10.15625 64.761719 10.339844 69.527344 10.839844 70.023438 C 11.738281 70.921875 13.273438 70.886719 14.054688 69.953125 Z M 14.054688 69.953125 "/>
<path style=" stroke:none;fill-rule:nonzero;fill:rgb(94.509804%,76.470588%,34.117647%);fill-opacity:1;" d="M 32.710938 58.476562 C 34.527344 57.234375 35.332031 57.042969 37.863281 57.25 C 39.742188 57.398438 41.484375 57.949219 42.527344 58.714844 L 44.1875 59.941406 L 46.34375 58.472656 C 48.160156 57.234375 48.964844 57.042969 51.496094 57.25 C 53.375 57.398438 55.117188 57.949219 56.15625 58.714844 L 57.820312 59.941406 L 59.972656 58.472656 C 61.792969 57.234375 62.597656 57.042969 65.128906 57.25 C 67.007812 57.398438 68.75 57.949219 69.789062 58.714844 L 71.453125 59.941406 L 73.542969 58.527344 C 75.773438 57.015625 78.820312 56.683594 81.417969 57.667969 L 82.890625 58.226562 L 82.734375 50.226562 C 82.597656 43.324219 82.4375 42.136719 81.582031 41.597656 C 79.835938 40.5 78.636719 41.84375 78.296875 45.273438 C 77.929688 49.003906 77.09375 50.601562 74.917969 51.722656 C 71.523438 53.476562 67.152344 52.296875 65.546875 49.199219 C 65.070312 48.285156 64.683594 46.125 64.683594 44.394531 L 64.683594 41.25 L 62.476562 41.25 C 60.300781 41.25 60.265625 41.289062 59.894531 43.757812 C 59.410156 46.957031 56.96875 50.582031 53.921875 52.625 C 46.019531 57.914062 34.351562 52.851562 33.160156 43.617188 C 32.75 40.421875 32.214844 39.332031 30.941406 39.082031 C 29.074219 38.714844 28.332031 40.078125 28.332031 43.898438 C 28.332031 49.726562 26.007812 52.578125 21.261719 52.578125 L 19.246094 52.578125 L 19.246094 58.085938 L 21.398438 57.511719 C 24.050781 56.808594 27.25 57.351562 29.003906 58.808594 C 29.726562 59.410156 30.375 59.914062 30.4375 59.921875 C 30.503906 59.933594 31.523438 59.28125 32.710938 58.476562 Z M 32.710938 58.476562 "/>
<path style=" stroke:none;fill-rule:nonzero;fill:rgb(94.509804%,76.470588%,34.117647%);fill-opacity:1;" d="M 55.828125 96.5 C 55.828125 74.785156 55.636719 65.246094 55.1875 64.253906 C 53.75 61.109375 48.820312 61.109375 47.382812 64.253906 C 46.929688 65.246094 46.738281 74.785156 46.738281 96.5 L 46.738281 127.34375 L 55.828125 127.34375 Z M 55.828125 96.5 "/>
<path style=" stroke:none;fill-rule:nonzero;fill:rgb(94.509804%,76.470588%,34.117647%);fill-opacity:1;" d="M 42.3125 96.5 C 42.3125 74.785156 42.121094 65.246094 41.667969 64.253906 C 40.230469 61.109375 35.300781 61.109375 33.863281 64.253906 C 33.414062 65.246094 33.222656 74.785156 33.222656 96.5 L 33.222656 127.34375 L 42.3125 127.34375 Z M 42.3125 96.5 "/>
<path style=" stroke:none;fill-rule:nonzero;fill:rgb(94.509804%,76.470588%,34.117647%);fill-opacity:1;" d="M 28.796875 96.5 C 28.796875 74.785156 28.605469 65.246094 28.152344 64.253906 C 26.714844 61.109375 21.785156 61.109375 20.347656 64.253906 C 19.898438 65.246094 19.707031 74.785156 19.707031 96.5 L 19.707031 127.34375 L 28.796875 127.34375 Z M 28.796875 96.5 "/>
<path style=" stroke:none;fill-rule:nonzero;fill:rgb(83.921569%,58.039216%,16.470588%);fill-opacity:1;" d="M 82.859375 139.496094 L 82.859375 138.050781 L 19.246094 138.050781 L 19.246094 140.9375 L 82.859375 140.9375 Z M 82.859375 139.496094 "/>
<path style=" stroke:none;fill-rule:nonzero;fill:rgb(83.921569%,58.039216%,16.470588%);fill-opacity:1;" d="M 82.859375 97.277344 C 82.859375 76.109375 82.804688 66.808594 82.671875 65.84375 C 82.246094 62.777344 80.789062 62.777344 80.363281 65.84375 C 80.230469 66.808594 80.171875 76.109375 80.171875 97.277344 L 80.171875 127.34375 L 82.859375 127.34375 Z M 82.859375 97.277344 "/>
<path style=" stroke:none;fill-rule:nonzero;fill:rgb(83.921569%,58.039216%,16.470588%);fill-opacity:1;" d="M 69.167969 97.277344 C 69.167969 76.109375 69.109375 66.808594 68.976562 65.84375 C 68.550781 62.777344 67.09375 62.777344 66.671875 65.84375 C 66.535156 66.808594 66.480469 76.109375 66.480469 97.277344 L 66.480469 127.34375 L 69.167969 127.34375 Z M 69.167969 97.277344 "/>
<path style=" stroke:none;fill-rule:nonzero;fill:rgb(83.921569%,58.039216%,16.470588%);fill-opacity:1;" d="M 55.78125 97.277344 C 55.78125 76.109375 55.726562 66.808594 55.589844 65.84375 C 55.167969 62.777344 53.710938 62.777344 53.285156 65.84375 C 53.152344 66.808594 53.09375 76.109375 53.09375 97.277344 L 53.09375 127.34375 L 55.78125 127.34375 Z M 55.78125 97.277344 "/>
<path style=" stroke:none;fill-rule:nonzero;fill:rgb(83.921569%,58.039216%,16.470588%);fill-opacity:1;" d="M 42.085938 97.277344 C 42.085938 76.109375 42.03125 66.808594 41.898438 65.84375 C 41.472656 62.777344 40.015625 62.777344 39.589844 65.84375 C 39.457031 66.808594 39.402344 76.109375 39.402344 97.277344 L 39.402344 127.34375 L 42.085938 127.34375 Z M 42.085938 97.277344 "/>
<path style=" stroke:none;fill-rule:nonzero;fill:rgb(83.921569%,58.039216%,16.470588%);fill-opacity:1;" d="M 28.394531 97.277344 C 28.394531 76.109375 28.339844 66.808594 28.203125 65.84375 C 27.78125 62.777344 26.324219 62.777344 25.898438 65.84375 C 25.765625 66.808594 25.707031 76.109375 25.707031 97.277344 L 25.707031 127.34375 L 28.394531 127.34375 Z M 28.394531 97.277344 "/>
<path style=" stroke:none;fill-rule:evenodd;fill:rgb(80%,80%,80%);fill-opacity:1;" d="M 40.0625 16.679688 C 40.0625 17.929688 39.042969 18.945312 37.789062 18.945312 C 36.535156 18.945312 35.519531 17.929688 35.519531 16.679688 C 35.519531 15.429688 36.535156 14.414062 37.789062 14.414062 C 39.042969 14.414062 40.0625 15.429688 40.0625 16.679688 Z M 40.0625 16.679688 "/>
<path style=" stroke:none;fill-rule:evenodd;fill:rgb(80%,80%,80%);fill-opacity:1;" d="M 49.765625 17.710938 C 49.765625 18.960938 48.75 19.976562 47.496094 19.976562 C 46.242188 19.976562 45.222656 18.960938 45.222656 17.710938 C 45.222656 16.457031 46.242188 15.445312 47.496094 15.445312 C 48.75 15.445312 49.765625 16.457031 49.765625 17.710938 Z M 49.765625 17.710938 "/>
<path style=" stroke:none;fill-rule:evenodd;fill:rgb(80%,80%,80%);fill-opacity:1;" d="M 44.8125 26.152344 C 44.8125 27.402344 43.792969 28.417969 42.539062 28.417969 C 41.285156 28.417969 40.269531 27.402344 40.269531 26.152344 C 40.269531 24.902344 41.285156 23.886719 42.539062 23.886719 C 43.792969 23.886719 44.8125 24.902344 44.8125 26.152344 Z M 44.8125 26.152344 "/>
<path style=" stroke:none;fill-rule:evenodd;fill:rgb(80%,80%,80%);fill-opacity:1;" d="M 32.214844 29.445312 C 32.214844 30.699219 31.195312 31.710938 29.941406 31.710938 C 28.6875 31.710938 27.671875 30.699219 27.671875 29.445312 C 27.671875 28.195312 28.6875 27.183594 29.941406 27.183594 C 31.195312 27.183594 32.214844 28.195312 32.214844 29.445312 Z M 32.214844 29.445312 "/>
<path style=" stroke:none;fill-rule:evenodd;fill:rgb(80%,80%,80%);fill-opacity:1;" d="M 70.003906 28.625 C 70.003906 29.875 68.988281 30.886719 67.730469 30.886719 C 66.476562 30.886719 65.460938 29.875 65.460938 28.625 C 65.460938 27.371094 66.476562 26.359375 67.730469 26.359375 C 68.988281 26.359375 70.003906 27.371094 70.003906 28.625 Z M 70.003906 28.625 "/>
<path style=" stroke:none;fill-rule:evenodd;fill:rgb(80%,80%,80%);fill-opacity:1;" d="M 77.230469 32.328125 C 77.230469 33.582031 76.214844 34.59375 74.960938 34.59375 C 73.707031 34.59375 72.6875 33.582031 72.6875 32.328125 C 72.6875 31.078125 73.707031 30.066406 74.960938 30.066406 C 76.214844 30.066406 77.230469 31.078125 77.230469 32.328125 Z M 77.230469 32.328125 "/>
<path style=" stroke:none;fill-rule:evenodd;fill:rgb(80%,80%,80%);fill-opacity:1;" d="M 17.550781 37.890625 C 17.550781 39.140625 16.535156 40.15625 15.28125 40.15625 C 14.027344 40.15625 13.007812 39.140625 13.007812 37.890625 C 13.007812 36.640625 14.027344 35.625 15.28125 35.625 C 16.535156 35.625 17.550781 36.640625 17.550781 37.890625 Z M 17.550781 37.890625 "/>
<path style=" stroke:none;fill-rule:evenodd;fill:rgb(80%,80%,80%);fill-opacity:1;" d="M 49.148438 37.476562 C 49.148438 38.730469 48.128906 39.742188 46.875 39.742188 C 45.621094 39.742188 44.605469 38.730469 44.605469 37.476562 C 44.605469 36.226562 45.621094 35.214844 46.875 35.214844 C 48.128906 35.214844 49.148438 36.226562 49.148438 37.476562 Z M 49.148438 37.476562 "/>
</g>
</svg>
