<?xml version="1.0" encoding="UTF-8"?>
<svg xmlns="http://www.w3.org/2000/svg" xmlns:xlink="http://www.w3.org/1999/xlink" width="30pt" height="36pt" viewBox="0 0 30 36" version="1.1">
<g id="surface1">
<path style=" stroke:none;fill-rule:nonzero;fill:rgb(0.392157%,25.882353%,38.823529%);fill-opacity:1;" d="M 4.023438 35.527344 L 3.675781 35.183594 L 3.675781 18.550781 L 3.171875 18.550781 C 2.894531 18.550781 2.480469 18.457031 2.25 18.339844 C 1.433594 17.921875 1.402344 17.738281 1.402344 12.9375 C 1.40625 10.5 1.46875 8.347656 1.542969 8.070312 C 1.855469 6.972656 3.046875 5.929688 4.183594 5.761719 C 4.753906 5.679688 4.8125 5.632812 4.8125 5.28125 C 4.8125 4.570312 5.367188 3.128906 5.914062 2.421875 C 7.648438 0.179688 10.464844 -0.488281 12.992188 0.738281 C 14.128906 1.292969 15.09375 2.21875 15.605469 3.261719 C 15.773438 3.605469 15.929688 3.886719 15.953125 3.886719 C 15.976562 3.886719 16.265625 3.792969 16.597656 3.675781 C 17.386719 3.402344 18.367188 3.410156 19.234375 3.703125 C 20.527344 4.136719 21.851562 5.816406 21.851562 7.023438 C 21.851562 7.253906 21.988281 7.355469 22.46875 7.484375 C 24.621094 8.050781 24.621094 11.175781 22.46875 11.742188 C 21.882812 11.898438 21.851562 11.929688 21.851562 12.421875 L 21.851562 12.9375 L 23.589844 12.988281 C 25.082031 13.03125 25.429688 13.085938 26.035156 13.378906 C 26.9375 13.8125 27.804688 14.664062 28.25 15.550781 L 28.597656 16.246094 L 28.597656 29.234375 L 28.25 29.929688 C 27.804688 30.816406 26.9375 31.671875 26.035156 32.105469 C 25.429688 32.394531 25.082031 32.453125 23.589844 32.496094 L 21.851562 32.546875 L 21.851562 33.863281 C 21.851562 35.078125 21.824219 35.210938 21.503906 35.527344 L 21.152344 35.867188 L 4.371094 35.867188 Z M 4.023438 35.527344 "/>
<path style=" stroke:none;fill-rule:nonzero;fill:rgb(94.509804%,76.470588%,34.117647%);fill-opacity:1;" d="M 20.714844 33.632812 L 20.714844 32.515625 L 4.8125 32.515625 L 4.8125 34.75 L 20.714844 34.75 Z M 20.714844 33.632812 "/>
<path style=" stroke:none;fill-rule:nonzero;fill:rgb(94.509804%,76.470588%,34.117647%);fill-opacity:1;" d="M 17.335938 23.796875 C 17.335938 18.441406 17.289062 16.085938 17.175781 15.84375 C 16.816406 15.066406 15.582031 15.066406 15.222656 15.84375 C 15.113281 16.085938 15.0625 18.441406 15.0625 23.796875 L 15.0625 31.398438 L 17.335938 31.398438 Z M 17.335938 23.796875 "/>
<path style=" stroke:none;fill-rule:nonzero;fill:rgb(94.509804%,76.470588%,34.117647%);fill-opacity:1;" d="M 20.714844 23.796875 C 20.714844 18.441406 20.667969 16.085938 20.554688 15.84375 C 20.195312 15.066406 18.960938 15.066406 18.601562 15.84375 C 18.492188 16.085938 18.441406 18.441406 18.441406 23.796875 L 18.441406 31.398438 L 20.714844 31.398438 Z M 20.714844 23.796875 "/>
<path style=" stroke:none;fill-rule:nonzero;fill:rgb(83.529412%,89.803922%,100%);fill-opacity:1;" d="M 25.542969 31.0625 C 26.234375 30.710938 26.792969 30.171875 27.152344 29.515625 C 27.453125 28.964844 27.460938 28.84375 27.460938 22.742188 C 27.460938 16.640625 27.453125 16.515625 27.152344 15.96875 C 26.792969 15.308594 26.234375 14.773438 25.542969 14.417969 C 25.175781 14.230469 24.632812 14.148438 23.449219 14.109375 L 21.851562 14.050781 L 21.851562 15.175781 L 23.402344 15.222656 C 25.078125 15.273438 25.394531 15.394531 26.03125 16.230469 C 26.316406 16.605469 26.324219 16.773438 26.324219 22.742188 C 26.324219 28.707031 26.316406 28.875 26.03125 29.25 C 25.394531 30.085938 25.078125 30.207031 23.402344 30.261719 L 21.851562 30.308594 L 21.851562 31.429688 L 23.449219 31.375 C 24.632812 31.332031 25.175781 31.253906 25.542969 31.0625 Z M 25.542969 31.0625 "/>
<path style=" stroke:none;fill-rule:nonzero;fill:rgb(100%,100%,100%);fill-opacity:1;" d="M 24.882812 28.796875 L 25.257812 28.429688 L 25.257812 17.054688 L 24.882812 16.683594 C 24.535156 16.339844 24.429688 16.316406 23.179688 16.316406 L 21.851562 16.316406 L 21.851562 29.164062 L 23.179688 29.164062 C 24.429688 29.164062 24.535156 29.140625 24.882812 28.796875 Z M 24.882812 28.796875 "/>
<path style=" stroke:none;fill-rule:nonzero;fill:rgb(100%,100%,100%);fill-opacity:1;" d="M 3.511719 17.25 C 3.613281 17.128906 3.683594 15.976562 3.707031 14.015625 C 3.742188 11.292969 3.773438 10.953125 3.996094 10.816406 C 4.316406 10.617188 4.703125 10.84375 4.8125 11.289062 C 4.917969 11.734375 5.308594 11.960938 5.628906 11.761719 C 5.816406 11.648438 5.894531 11.355469 5.949219 10.574219 C 5.988281 10.007812 6.101562 9.402344 6.203125 9.230469 C 6.589844 8.554688 7.707031 8.300781 8.507812 8.707031 C 9.03125 8.972656 9.238281 9.351562 9.371094 10.285156 C 9.765625 13.078125 13.441406 13.089844 13.890625 10.296875 C 14.050781 9.28125 14.363281 9.054688 15.601562 9.054688 C 16.972656 9.054688 17.214844 9.273438 17.308594 10.597656 C 17.359375 11.359375 17.441406 11.648438 17.625 11.761719 C 18.0625 12.03125 18.363281 11.699219 18.449219 10.855469 C 18.488281 10.441406 18.601562 9.960938 18.699219 9.789062 C 19.082031 9.113281 20.203125 8.859375 21.003906 9.265625 C 21.421875 9.480469 21.851562 10.109375 21.851562 10.515625 C 21.851562 10.839844 22.246094 10.773438 22.636719 10.386719 C 23.332031 9.703125 22.84375 8.496094 21.875 8.496094 C 21.183594 8.496094 20.832031 8.09375 20.703125 7.167969 C 20.5625 6.144531 20.023438 5.359375 19.152344 4.898438 C 18.621094 4.617188 18.375 4.574219 17.6875 4.628906 C 16.261719 4.75 15.261719 5.671875 15.058594 7.050781 C 14.949219 7.789062 14.621094 8.101562 14.21875 7.847656 C 13.710938 7.53125 14.023438 5.855469 14.777344 4.839844 C 14.917969 4.648438 14.886719 4.472656 14.605469 3.882812 C 14.167969 2.960938 13.402344 2.1875 12.449219 1.695312 C 11.800781 1.359375 11.535156 1.308594 10.492188 1.308594 C 9.453125 1.308594 9.183594 1.359375 8.542969 1.6875 C 7.070312 2.449219 6.164062 3.742188 5.964844 5.367188 C 5.902344 5.882812 5.757812 6.367188 5.628906 6.496094 C 5.503906 6.617188 5.070312 6.769531 4.667969 6.832031 C 3.800781 6.96875 3.101562 7.445312 2.773438 8.125 C 2.574219 8.539062 2.539062 9.207031 2.539062 12.851562 C 2.539062 15.96875 2.585938 17.144531 2.710938 17.265625 C 2.933594 17.488281 3.320312 17.480469 3.511719 17.25 Z M 3.511719 17.25 "/>
<path style=" stroke:none;fill-rule:nonzero;fill:rgb(94.509804%,76.470588%,34.117647%);fill-opacity:1;" d="M 8.175781 14.417969 C 8.632812 14.113281 8.832031 14.066406 9.464844 14.117188 C 9.9375 14.152344 10.371094 14.289062 10.632812 14.476562 L 11.046875 14.78125 L 11.585938 14.417969 C 12.039062 14.113281 12.242188 14.066406 12.875 14.117188 C 13.34375 14.152344 13.78125 14.289062 14.039062 14.476562 L 14.457031 14.78125 L 14.992188 14.417969 C 15.449219 14.113281 15.648438 14.066406 16.28125 14.117188 C 16.75 14.152344 17.1875 14.289062 17.449219 14.476562 L 17.863281 14.78125 L 18.386719 14.429688 C 18.945312 14.058594 19.707031 13.976562 20.355469 14.21875 L 20.722656 14.355469 L 20.683594 12.382812 C 20.648438 10.683594 20.609375 10.390625 20.394531 10.257812 C 19.957031 9.988281 19.660156 10.316406 19.574219 11.164062 C 19.484375 12.082031 19.273438 12.476562 18.730469 12.753906 C 17.878906 13.1875 16.789062 12.894531 16.386719 12.132812 C 16.269531 11.90625 16.171875 11.371094 16.171875 10.945312 L 16.171875 10.171875 L 15.621094 10.171875 C 15.074219 10.171875 15.066406 10.179688 14.972656 10.789062 C 14.851562 11.578125 14.242188 12.472656 13.480469 12.976562 C 11.503906 14.28125 8.585938 13.03125 8.289062 10.753906 C 8.1875 9.96875 8.054688 9.699219 7.734375 9.636719 C 7.269531 9.546875 7.082031 9.882812 7.082031 10.824219 C 7.082031 12.261719 6.503906 12.964844 5.316406 12.964844 L 4.8125 12.964844 L 4.8125 14.324219 L 5.347656 14.179688 C 6.011719 14.007812 6.8125 14.140625 7.25 14.5 C 7.433594 14.648438 7.59375 14.773438 7.609375 14.777344 C 7.625 14.777344 7.882812 14.617188 8.175781 14.417969 Z M 8.175781 14.417969 "/>
<path style=" stroke:none;fill-rule:nonzero;fill:rgb(94.509804%,76.470588%,34.117647%);fill-opacity:1;" d="M 13.957031 23.796875 C 13.957031 18.441406 13.910156 16.085938 13.796875 15.84375 C 13.4375 15.066406 12.203125 15.066406 11.84375 15.84375 C 11.730469 16.085938 11.683594 18.441406 11.683594 23.796875 L 11.683594 31.398438 L 13.957031 31.398438 Z M 13.957031 23.796875 "/>
<path style=" stroke:none;fill-rule:nonzero;fill:rgb(94.509804%,76.470588%,34.117647%);fill-opacity:1;" d="M 10.578125 23.796875 C 10.578125 18.441406 10.53125 16.085938 10.417969 15.84375 C 10.058594 15.066406 8.824219 15.066406 8.464844 15.84375 C 8.351562 16.085938 8.304688 18.441406 8.304688 23.796875 L 8.304688 31.398438 L 10.578125 31.398438 Z M 10.578125 23.796875 "/>
<path style=" stroke:none;fill-rule:nonzero;fill:rgb(94.509804%,76.470588%,34.117647%);fill-opacity:1;" d="M 7.199219 23.796875 C 7.199219 18.441406 7.152344 16.085938 7.039062 15.84375 C 6.679688 15.066406 5.445312 15.066406 5.085938 15.84375 C 4.972656 16.085938 4.925781 18.441406 4.925781 23.796875 L 4.925781 31.398438 L 7.199219 31.398438 Z M 7.199219 23.796875 "/>
<path style=" stroke:none;fill-rule:nonzero;fill:rgb(83.921569%,58.039216%,16.470588%);fill-opacity:1;" d="M 20.714844 34.394531 L 20.714844 34.039062 L 4.8125 34.039062 L 4.8125 34.75 L 20.714844 34.75 Z M 20.714844 34.394531 "/>
<path style=" stroke:none;fill-rule:nonzero;fill:rgb(83.921569%,58.039216%,16.470588%);fill-opacity:1;" d="M 20.714844 23.988281 C 20.714844 18.765625 20.699219 16.472656 20.667969 16.234375 C 20.5625 15.480469 20.195312 15.480469 20.089844 16.234375 C 20.058594 16.472656 20.042969 18.765625 20.042969 23.988281 L 20.042969 31.398438 L 20.714844 31.398438 Z M 20.714844 23.988281 "/>
<path style=" stroke:none;fill-rule:nonzero;fill:rgb(83.921569%,58.039216%,16.470588%);fill-opacity:1;" d="M 17.292969 23.988281 C 17.292969 18.765625 17.277344 16.472656 17.246094 16.234375 C 17.136719 15.480469 16.773438 15.480469 16.667969 16.234375 C 16.632812 16.472656 16.621094 18.765625 16.621094 23.988281 L 16.621094 31.398438 L 17.292969 31.398438 Z M 17.292969 23.988281 "/>
<path style=" stroke:none;fill-rule:nonzero;fill:rgb(83.921569%,58.039216%,16.470588%);fill-opacity:1;" d="M 13.945312 23.988281 C 13.945312 18.765625 13.929688 16.472656 13.898438 16.234375 C 13.792969 15.480469 13.425781 15.480469 13.320312 16.234375 C 13.289062 16.472656 13.273438 18.765625 13.273438 23.988281 L 13.273438 31.398438 L 13.945312 31.398438 Z M 13.945312 23.988281 "/>
<path style=" stroke:none;fill-rule:nonzero;fill:rgb(83.921569%,58.039216%,16.470588%);fill-opacity:1;" d="M 10.523438 23.988281 C 10.523438 18.765625 10.507812 16.472656 10.472656 16.234375 C 10.367188 15.480469 10.003906 15.480469 9.898438 16.234375 C 9.863281 16.472656 9.851562 18.765625 9.851562 23.988281 L 9.851562 31.398438 L 10.523438 31.398438 Z M 10.523438 23.988281 "/>
<path style=" stroke:none;fill-rule:nonzero;fill:rgb(83.921569%,58.039216%,16.470588%);fill-opacity:1;" d="M 7.097656 23.988281 C 7.097656 18.765625 7.085938 16.472656 7.050781 16.234375 C 6.945312 15.480469 6.582031 15.480469 6.472656 16.234375 C 6.441406 16.472656 6.425781 18.765625 6.425781 23.988281 L 6.425781 31.398438 L 7.097656 31.398438 Z M 7.097656 23.988281 "/>
<path style=" stroke:none;fill-rule:evenodd;fill:rgb(80%,80%,80%);fill-opacity:1;" d="M 10.015625 4.113281 C 10.015625 4.421875 9.761719 4.671875 9.449219 4.671875 C 9.132812 4.671875 8.878906 4.421875 8.878906 4.113281 C 8.878906 3.804688 9.132812 3.554688 9.449219 3.554688 C 9.761719 3.554688 10.015625 3.804688 10.015625 4.113281 Z M 10.015625 4.113281 "/>
<path style=" stroke:none;fill-rule:evenodd;fill:rgb(80%,80%,80%);fill-opacity:1;" d="M 12.441406 4.367188 C 12.441406 4.675781 12.1875 4.925781 11.875 4.925781 C 11.558594 4.925781 11.304688 4.675781 11.304688 4.367188 C 11.304688 4.058594 11.558594 3.808594 11.875 3.808594 C 12.1875 3.808594 12.441406 4.058594 12.441406 4.367188 Z M 12.441406 4.367188 "/>
<path style=" stroke:none;fill-rule:evenodd;fill:rgb(80%,80%,80%);fill-opacity:1;" d="M 11.203125 6.449219 C 11.203125 6.757812 10.949219 7.007812 10.636719 7.007812 C 10.320312 7.007812 10.066406 6.757812 10.066406 6.449219 C 10.066406 6.140625 10.320312 5.890625 10.636719 5.890625 C 10.949219 5.890625 11.203125 6.140625 11.203125 6.449219 Z M 11.203125 6.449219 "/>
<path style=" stroke:none;fill-rule:evenodd;fill:rgb(80%,80%,80%);fill-opacity:1;" d="M 8.054688 7.261719 C 8.054688 7.570312 7.800781 7.820312 7.484375 7.820312 C 7.171875 7.820312 6.917969 7.570312 6.917969 7.261719 C 6.917969 6.953125 7.171875 6.703125 7.484375 6.703125 C 7.800781 6.703125 8.054688 6.953125 8.054688 7.261719 Z M 8.054688 7.261719 "/>
<path style=" stroke:none;fill-rule:evenodd;fill:rgb(80%,80%,80%);fill-opacity:1;" d="M 17.5 7.058594 C 17.5 7.367188 17.246094 7.617188 16.933594 7.617188 C 16.621094 7.617188 16.363281 7.367188 16.363281 7.058594 C 16.363281 6.75 16.621094 6.5 16.933594 6.5 C 17.246094 6.5 17.5 6.75 17.5 7.058594 Z M 17.5 7.058594 "/>
<path style=" stroke:none;fill-rule:evenodd;fill:rgb(80%,80%,80%);fill-opacity:1;" d="M 19.308594 7.972656 C 19.308594 8.28125 19.054688 8.53125 18.738281 8.53125 C 18.425781 8.53125 18.171875 8.28125 18.171875 7.972656 C 18.171875 7.664062 18.425781 7.414062 18.738281 7.414062 C 19.054688 7.414062 19.308594 7.664062 19.308594 7.972656 Z M 19.308594 7.972656 "/>
<path style=" stroke:none;fill-rule:evenodd;fill:rgb(80%,80%,80%);fill-opacity:1;" d="M 4.386719 9.34375 C 4.386719 9.652344 4.132812 9.902344 3.820312 9.902344 C 3.507812 9.902344 3.253906 9.652344 3.253906 9.34375 C 3.253906 9.035156 3.507812 8.785156 3.820312 8.785156 C 4.132812 8.785156 4.386719 9.035156 4.386719 9.34375 Z M 4.386719 9.34375 "/>
<path style=" stroke:none;fill-rule:evenodd;fill:rgb(80%,80%,80%);fill-opacity:1;" d="M 12.285156 9.242188 C 12.285156 9.550781 12.03125 9.800781 11.71875 9.800781 C 11.40625 9.800781 11.152344 9.550781 11.152344 9.242188 C 11.152344 8.933594 11.40625 8.683594 11.71875 8.683594 C 12.03125 8.683594 12.285156 8.933594 12.285156 9.242188 Z M 12.285156 9.242188 "/>
</g>
</svg>
