<?xml version="1.0" encoding="UTF-8"?>
<svg xmlns="http://www.w3.org/2000/svg" xmlns:xlink="http://www.w3.org/1999/xlink" width="20pt" height="24pt" viewBox="0 0 20 24" version="1.1">
<g id="surface1">
<path style=" stroke:none;fill-rule:nonzero;fill:rgb(0.392157%,25.882353%,38.823529%);fill-opacity:1;" d="M 2.683594 23.683594 L 2.449219 23.457031 L 2.449219 12.367188 L 2.113281 12.367188 C 1.929688 12.367188 1.652344 12.304688 1.5 12.226562 C 0.953125 11.949219 0.9375 11.824219 0.9375 8.625 C 0.9375 7 0.976562 5.5625 1.03125 5.378906 C 1.238281 4.648438 2.03125 3.953125 2.789062 3.84375 C 3.167969 3.785156 3.207031 3.757812 3.207031 3.523438 C 3.207031 3.046875 3.578125 2.085938 3.941406 1.617188 C 5.101562 0.121094 6.976562 -0.328125 8.660156 0.492188 C 9.421875 0.859375 10.0625 1.480469 10.402344 2.175781 C 10.515625 2.402344 10.621094 2.589844 10.636719 2.589844 C 10.648438 2.589844 10.84375 2.527344 11.066406 2.453125 C 11.59375 2.269531 12.246094 2.273438 12.820312 2.46875 C 13.683594 2.757812 14.566406 3.878906 14.566406 4.683594 C 14.566406 4.835938 14.65625 4.902344 14.980469 4.988281 C 16.414062 5.367188 16.414062 7.449219 14.980469 7.828125 C 14.585938 7.933594 14.566406 7.953125 14.566406 8.28125 L 14.566406 8.625 L 15.726562 8.65625 C 16.722656 8.6875 16.953125 8.722656 17.355469 8.917969 C 17.957031 9.207031 18.535156 9.777344 18.832031 10.367188 L 19.0625 10.832031 L 19.0625 19.488281 L 18.832031 19.953125 C 18.535156 20.542969 17.957031 21.113281 17.355469 21.402344 C 16.953125 21.597656 16.722656 21.632812 15.726562 21.664062 L 14.566406 21.695312 L 14.566406 22.578125 C 14.566406 23.386719 14.546875 23.472656 14.335938 23.683594 L 14.101562 23.914062 L 2.914062 23.914062 Z M 2.683594 23.683594 "/>
<path style=" stroke:none;fill-rule:nonzero;fill:rgb(94.509804%,76.470588%,34.117647%);fill-opacity:1;" d="M 13.808594 22.421875 L 13.808594 21.679688 L 3.207031 21.679688 L 3.207031 23.167969 L 13.808594 23.167969 Z M 13.808594 22.421875 "/>
<path style=" stroke:none;fill-rule:nonzero;fill:rgb(94.509804%,76.470588%,34.117647%);fill-opacity:1;" d="M 11.558594 15.863281 C 11.558594 12.292969 11.527344 10.726562 11.449219 10.5625 C 11.210938 10.046875 10.390625 10.046875 10.148438 10.5625 C 10.074219 10.726562 10.042969 12.292969 10.042969 15.863281 L 10.042969 20.933594 L 11.558594 20.933594 Z M 11.558594 15.863281 "/>
<path style=" stroke:none;fill-rule:nonzero;fill:rgb(94.509804%,76.470588%,34.117647%);fill-opacity:1;" d="M 13.808594 15.863281 C 13.808594 12.292969 13.777344 10.726562 13.703125 10.5625 C 13.464844 10.046875 12.640625 10.046875 12.402344 10.5625 C 12.328125 10.726562 12.296875 12.292969 12.296875 15.863281 L 12.296875 20.933594 L 13.808594 20.933594 Z M 13.808594 15.863281 "/>
<path style=" stroke:none;fill-rule:nonzero;fill:rgb(83.529412%,89.803922%,100%);fill-opacity:1;" d="M 17.027344 20.710938 C 17.488281 20.472656 17.863281 20.113281 18.101562 19.675781 C 18.304688 19.3125 18.304688 19.226562 18.304688 15.160156 C 18.304688 11.09375 18.304688 11.011719 18.101562 10.644531 C 17.863281 10.207031 17.488281 9.847656 17.027344 9.613281 C 16.78125 9.484375 16.421875 9.433594 15.632812 9.40625 L 14.566406 9.367188 L 14.566406 10.117188 L 15.601562 10.148438 C 16.71875 10.183594 16.929688 10.261719 17.355469 10.820312 C 17.542969 11.070312 17.550781 11.183594 17.550781 15.160156 C 17.550781 19.140625 17.542969 19.25 17.355469 19.5 C 16.929688 20.058594 16.71875 20.140625 15.601562 20.171875 L 14.566406 20.203125 L 14.566406 20.953125 L 15.632812 20.917969 C 16.421875 20.886719 16.78125 20.835938 17.027344 20.710938 Z M 17.027344 20.710938 "/>
<path style=" stroke:none;fill-rule:nonzero;fill:rgb(100%,100%,100%);fill-opacity:1;" d="M 16.589844 19.199219 L 16.839844 18.953125 L 16.839844 11.367188 L 16.589844 11.125 C 16.355469 10.894531 16.285156 10.878906 15.453125 10.878906 L 14.566406 10.878906 L 14.566406 19.445312 L 15.453125 19.445312 C 16.285156 19.445312 16.355469 19.429688 16.589844 19.199219 Z M 16.589844 19.199219 "/>
<path style=" stroke:none;fill-rule:nonzero;fill:rgb(100%,100%,100%);fill-opacity:1;" d="M 2.34375 11.5 C 2.410156 11.417969 2.457031 10.652344 2.472656 9.34375 C 2.496094 7.527344 2.515625 7.300781 2.664062 7.210938 C 2.875 7.078125 3.136719 7.226562 3.207031 7.527344 C 3.277344 7.824219 3.539062 7.972656 3.75 7.839844 C 3.875 7.765625 3.929688 7.570312 3.964844 7.050781 C 3.992188 6.671875 4.066406 6.269531 4.132812 6.152344 C 4.394531 5.703125 5.140625 5.535156 5.671875 5.804688 C 6.019531 5.984375 6.160156 6.234375 6.246094 6.855469 C 6.507812 8.71875 8.960938 8.726562 9.257812 6.863281 C 9.367188 6.1875 9.574219 6.035156 10.402344 6.035156 C 11.316406 6.035156 11.476562 6.179688 11.539062 7.066406 C 11.574219 7.570312 11.625 7.765625 11.75 7.839844 C 12.042969 8.019531 12.242188 7.800781 12.296875 7.238281 C 12.324219 6.960938 12.402344 6.640625 12.464844 6.527344 C 12.722656 6.074219 13.46875 5.90625 14.003906 6.175781 C 14.28125 6.320312 14.566406 6.742188 14.566406 7.007812 C 14.566406 7.226562 14.828125 7.183594 15.09375 6.925781 C 15.554688 6.46875 15.230469 5.664062 14.582031 5.664062 C 14.121094 5.664062 13.886719 5.398438 13.800781 4.777344 C 13.707031 4.097656 13.347656 3.570312 12.769531 3.265625 C 12.414062 3.078125 12.25 3.046875 11.792969 3.085938 C 10.839844 3.167969 10.171875 3.78125 10.039062 4.699219 C 9.96875 5.191406 9.746094 5.402344 9.480469 5.234375 C 9.140625 5.019531 9.347656 3.902344 9.851562 3.226562 C 9.945312 3.097656 9.925781 2.980469 9.738281 2.585938 C 9.445312 1.976562 8.9375 1.457031 8.300781 1.128906 C 7.867188 0.90625 7.691406 0.871094 6.996094 0.871094 C 6.300781 0.871094 6.121094 0.90625 5.695312 1.125 C 4.714844 1.632812 4.109375 2.496094 3.976562 3.578125 C 3.933594 3.921875 3.835938 4.246094 3.753906 4.332031 C 3.667969 4.410156 3.378906 4.511719 3.109375 4.554688 C 2.535156 4.644531 2.066406 4.964844 1.847656 5.417969 C 1.714844 5.691406 1.691406 6.136719 1.691406 8.570312 C 1.691406 10.644531 1.722656 11.429688 1.804688 11.511719 C 1.957031 11.660156 2.210938 11.652344 2.34375 11.5 Z M 2.34375 11.5 "/>
<path style=" stroke:none;fill-rule:nonzero;fill:rgb(94.509804%,76.470588%,34.117647%);fill-opacity:1;" d="M 5.453125 9.613281 C 5.753906 9.410156 5.890625 9.378906 6.3125 9.410156 C 6.625 9.433594 6.914062 9.527344 7.085938 9.652344 L 7.363281 9.851562 L 7.722656 9.613281 C 8.027344 9.410156 8.160156 9.378906 8.582031 9.410156 C 8.894531 9.433594 9.1875 9.527344 9.359375 9.652344 L 9.636719 9.851562 L 9.996094 9.613281 C 10.296875 9.410156 10.433594 9.378906 10.855469 9.410156 C 11.167969 9.433594 11.457031 9.527344 11.632812 9.652344 L 11.910156 9.851562 L 12.257812 9.621094 C 12.628906 9.371094 13.136719 9.316406 13.570312 9.480469 L 13.816406 9.570312 L 13.789062 8.257812 C 13.765625 7.121094 13.738281 6.925781 13.597656 6.839844 C 13.304688 6.65625 13.105469 6.878906 13.050781 7.441406 C 12.988281 8.054688 12.847656 8.320312 12.488281 8.503906 C 11.921875 8.789062 11.191406 8.597656 10.925781 8.085938 C 10.84375 7.9375 10.78125 7.582031 10.78125 7.296875 L 10.78125 6.78125 L 10.414062 6.78125 C 10.050781 6.78125 10.042969 6.785156 9.980469 7.191406 C 9.902344 7.71875 9.496094 8.316406 8.988281 8.648438 C 7.667969 9.519531 5.726562 8.6875 5.527344 7.167969 C 5.457031 6.644531 5.371094 6.464844 5.15625 6.425781 C 4.84375 6.363281 4.722656 6.589844 4.722656 7.214844 C 4.722656 8.175781 4.335938 8.644531 3.542969 8.644531 L 3.207031 8.644531 L 3.207031 9.546875 L 3.566406 9.453125 C 4.007812 9.339844 4.542969 9.429688 4.832031 9.667969 C 4.953125 9.765625 5.0625 9.847656 5.074219 9.851562 C 5.082031 9.851562 5.253906 9.746094 5.453125 9.613281 Z M 5.453125 9.613281 "/>
<path style=" stroke:none;fill-rule:nonzero;fill:rgb(94.509804%,76.470588%,34.117647%);fill-opacity:1;" d="M 9.304688 15.863281 C 9.304688 12.292969 9.273438 10.726562 9.199219 10.5625 C 8.957031 10.046875 8.136719 10.046875 7.898438 10.5625 C 7.820312 10.726562 7.789062 12.292969 7.789062 15.863281 L 7.789062 20.933594 L 9.304688 20.933594 Z M 9.304688 15.863281 "/>
<path style=" stroke:none;fill-rule:nonzero;fill:rgb(94.509804%,76.470588%,34.117647%);fill-opacity:1;" d="M 7.050781 15.863281 C 7.050781 12.292969 7.019531 10.726562 6.945312 10.5625 C 6.707031 10.046875 5.882812 10.046875 5.644531 10.5625 C 5.570312 10.726562 5.539062 12.292969 5.539062 15.863281 L 5.539062 20.933594 L 7.050781 20.933594 Z M 7.050781 15.863281 "/>
<path style=" stroke:none;fill-rule:nonzero;fill:rgb(94.509804%,76.470588%,34.117647%);fill-opacity:1;" d="M 4.800781 15.863281 C 4.800781 12.292969 4.765625 10.726562 4.691406 10.5625 C 4.453125 10.046875 3.632812 10.046875 3.390625 10.5625 C 3.316406 10.726562 3.285156 12.292969 3.285156 15.863281 L 3.285156 20.933594 L 4.800781 20.933594 Z M 4.800781 15.863281 "/>
<path style=" stroke:none;fill-rule:nonzero;fill:rgb(83.921569%,58.039216%,16.470588%);fill-opacity:1;" d="M 13.808594 22.929688 L 13.808594 22.695312 L 3.207031 22.695312 L 3.207031 23.167969 L 13.808594 23.167969 Z M 13.808594 22.929688 "/>
<path style=" stroke:none;fill-rule:nonzero;fill:rgb(83.921569%,58.039216%,16.470588%);fill-opacity:1;" d="M 13.808594 15.992188 C 13.808594 12.511719 13.800781 10.980469 13.777344 10.824219 C 13.707031 10.320312 13.464844 10.320312 13.394531 10.824219 C 13.371094 10.980469 13.363281 12.511719 13.363281 15.992188 L 13.363281 20.933594 L 13.808594 20.933594 Z M 13.808594 15.992188 "/>
<path style=" stroke:none;fill-rule:nonzero;fill:rgb(83.921569%,58.039216%,16.470588%);fill-opacity:1;" d="M 11.527344 15.992188 C 11.527344 12.511719 11.519531 10.980469 11.496094 10.824219 C 11.425781 10.320312 11.183594 10.320312 11.113281 10.824219 C 11.089844 10.980469 11.082031 12.511719 11.082031 15.992188 L 11.082031 20.933594 L 11.527344 20.933594 Z M 11.527344 15.992188 "/>
<path style=" stroke:none;fill-rule:nonzero;fill:rgb(83.921569%,58.039216%,16.470588%);fill-opacity:1;" d="M 9.296875 15.992188 C 9.296875 12.511719 9.289062 10.980469 9.265625 10.824219 C 9.195312 10.320312 8.953125 10.320312 8.878906 10.824219 C 8.859375 10.980469 8.847656 12.511719 8.847656 15.992188 L 8.847656 20.933594 L 9.296875 20.933594 Z M 9.296875 15.992188 "/>
<path style=" stroke:none;fill-rule:nonzero;fill:rgb(83.921569%,58.039216%,16.470588%);fill-opacity:1;" d="M 7.015625 15.992188 C 7.015625 12.511719 7.003906 10.980469 6.984375 10.824219 C 6.914062 10.320312 6.667969 10.320312 6.597656 10.824219 C 6.578125 10.980469 6.566406 12.511719 6.566406 15.992188 L 6.566406 20.933594 L 7.015625 20.933594 Z M 7.015625 15.992188 "/>
<path style=" stroke:none;fill-rule:nonzero;fill:rgb(83.921569%,58.039216%,16.470588%);fill-opacity:1;" d="M 4.730469 15.992188 C 4.730469 12.511719 4.722656 10.980469 4.699219 10.824219 C 4.628906 10.320312 4.386719 10.320312 4.316406 10.824219 C 4.292969 10.980469 4.285156 12.511719 4.285156 15.992188 L 4.285156 20.933594 L 4.730469 20.933594 Z M 4.730469 15.992188 "/>
<path style=" stroke:none;fill-rule:evenodd;fill:rgb(80%,80%,80%);fill-opacity:1;" d="M 6.675781 2.742188 C 6.675781 2.949219 6.507812 3.113281 6.296875 3.113281 C 6.089844 3.113281 5.917969 2.949219 5.917969 2.742188 C 5.917969 2.535156 6.089844 2.371094 6.296875 2.371094 C 6.507812 2.371094 6.675781 2.535156 6.675781 2.742188 Z M 6.675781 2.742188 "/>
<path style=" stroke:none;fill-rule:evenodd;fill:rgb(80%,80%,80%);fill-opacity:1;" d="M 8.292969 2.910156 C 8.292969 3.117188 8.125 3.285156 7.914062 3.285156 C 7.707031 3.285156 7.539062 3.117188 7.539062 2.910156 C 7.539062 2.707031 7.707031 2.539062 7.914062 2.539062 C 8.125 2.539062 8.292969 2.707031 8.292969 2.910156 Z M 8.292969 2.910156 "/>
<path style=" stroke:none;fill-rule:evenodd;fill:rgb(80%,80%,80%);fill-opacity:1;" d="M 7.46875 4.300781 C 7.46875 4.503906 7.300781 4.671875 7.089844 4.671875 C 6.878906 4.671875 6.710938 4.503906 6.710938 4.300781 C 6.710938 4.09375 6.878906 3.925781 7.089844 3.925781 C 7.300781 3.925781 7.46875 4.09375 7.46875 4.300781 Z M 7.46875 4.300781 "/>
<path style=" stroke:none;fill-rule:evenodd;fill:rgb(80%,80%,80%);fill-opacity:1;" d="M 5.367188 4.839844 C 5.367188 5.046875 5.199219 5.214844 4.992188 5.214844 C 4.78125 5.214844 4.613281 5.046875 4.613281 4.839844 C 4.613281 4.636719 4.78125 4.46875 4.992188 4.46875 C 5.199219 4.46875 5.367188 4.636719 5.367188 4.839844 Z M 5.367188 4.839844 "/>
<path style=" stroke:none;fill-rule:evenodd;fill:rgb(80%,80%,80%);fill-opacity:1;" d="M 11.667969 4.707031 C 11.667969 4.910156 11.496094 5.078125 11.289062 5.078125 C 11.078125 5.078125 10.910156 4.910156 10.910156 4.707031 C 10.910156 4.5 11.078125 4.332031 11.289062 4.332031 C 11.496094 4.332031 11.667969 4.5 11.667969 4.707031 Z M 11.667969 4.707031 "/>
<path style=" stroke:none;fill-rule:evenodd;fill:rgb(80%,80%,80%);fill-opacity:1;" d="M 12.871094 5.316406 C 12.871094 5.519531 12.703125 5.6875 12.492188 5.6875 C 12.285156 5.6875 12.113281 5.519531 12.113281 5.316406 C 12.113281 5.109375 12.285156 4.941406 12.492188 4.941406 C 12.703125 4.941406 12.871094 5.109375 12.871094 5.316406 Z M 12.871094 5.316406 "/>
<path style=" stroke:none;fill-rule:evenodd;fill:rgb(80%,80%,80%);fill-opacity:1;" d="M 2.925781 6.226562 C 2.925781 6.433594 2.757812 6.601562 2.546875 6.601562 C 2.335938 6.601562 2.167969 6.433594 2.167969 6.226562 C 2.167969 6.023438 2.335938 5.855469 2.546875 5.855469 C 2.757812 5.855469 2.925781 6.023438 2.925781 6.226562 Z M 2.925781 6.226562 "/>
<path style=" stroke:none;fill-rule:evenodd;fill:rgb(80%,80%,80%);fill-opacity:1;" d="M 8.191406 6.160156 C 8.191406 6.367188 8.023438 6.53125 7.8125 6.53125 C 7.605469 6.53125 7.433594 6.367188 7.433594 6.160156 C 7.433594 5.957031 7.605469 5.789062 7.8125 5.789062 C 8.023438 5.789062 8.191406 5.957031 8.191406 6.160156 Z M 8.191406 6.160156 "/>
</g>
</svg>
